<?xml version="1.0" encoding="UTF-8" standalone="no"?>
<!-- Created with Inkscape (http://www.inkscape.org/) -->

<svg
   version="1.1"
   id="svg182"
   width="1274"
   height="1134"
   viewBox="0 0 1274 1134"
   sodipodi:docname="Suthesh-portfolio-dino-swap.svg"
   xml:space="preserve"
   inkscape:version="1.2.2 (732a01da63, 2022-12-09)"
   xmlns:inkscape="http://www.inkscape.org/namespaces/inkscape"
   xmlns:sodipodi="http://sodipodi.sourceforge.net/DTD/sodipodi-0.dtd"
   xmlns="http://www.w3.org/2000/svg"
   xmlns:svg="http://www.w3.org/2000/svg"><defs
     id="defs186" /><sodipodi:namedview
     id="namedview184"
     pagecolor="#ffffff"
     bordercolor="#cccccc"
     borderopacity="1"
     inkscape:showpageshadow="0"
     inkscape:pageopacity="1"
     inkscape:pagecheckerboard="0"
     inkscape:deskcolor="#d1d1d1"
     showgrid="false"
     inkscape:zoom="0.52066505"
     inkscape:cx="417.73497"
     inkscape:cy="567.54338"
     inkscape:window-width="1920"
     inkscape:window-height="1051"
     inkscape:window-x="-9"
     inkscape:window-y="-9"
     inkscape:window-maximized="1"
     inkscape:current-layer="g188" /><g
     inkscape:groupmode="layer"
     inkscape:label="Image"
     id="g188"><path
       fill="#ff0066"
       d="M 1061.6626,440.17971 C 1150.1802,664.58616 1102.1548,943.64509 928.886,1049.6379 754.67569,1155.6305 455.22243,1089.3851 266.88704,953.58189 78.551612,817.77872 1.3341218,612.41784 62.543122,421.96223 123.75213,230.67847 323.38769,54.300009 535.265,50.159649 748.08397,46.847409 973.14493,216.6013 1061.6626,440.17971 Z"
       id="path182-8-2"
       style="fill:#00ffff;stroke-width:8.83049" /><path
       fill="#ff0066"
       d="m 1194.2407,472.67027 c 88.5176,224.40645 40.4922,503.46532 -132.7766,609.45813 C 887.25381,1188.121 587.80054,1121.8756 399.46515,986.07249 211.12973,850.26928 133.91223,644.90841 195.12124,454.4528 256.33025,263.16904 455.9658,86.790569 667.84312,82.650209 880.66208,79.337969 1105.7231,249.09187 1194.2407,472.67027 Z"
       id="path182-4"
       style="fill:#f2f2f2;stroke-width:8.83049" /><g
       id="g6409"
       style="display:inline;mix-blend-mode:normal;fill:#000000;fill-opacity:1"
       transform="matrix(20.428243,0,0,25.279312,-409.60137,-1083.2377)"><g
         aria-label="S"
         transform="matrix(0.82940165,0.2359965,-0.34600465,1.1072369,6.1962294,18.441828)"
         id="text6356"
         style="font-weight:bold;font-size:22.6256px;font-family:'Segoe Print';-inkscape-font-specification:'Segoe Print Bold';fill:#000000;fill-opacity:1;stroke-width:6.5669"><path
           d="m 68.604532,25.188794 c 0.187753,-1.083517 -0.912955,-2.083983 -1.971064,-1.924616 -1.893812,-0.09742 -3.923227,0.598341 -5.11857,2.117252 -0.561141,0.980175 0.229706,2.219362 1.268752,2.417029 2.245332,0.968108 4.898094,1.191224 6.73775,2.947548 0.927602,0.918511 0.891472,2.505389 0.06431,3.477775 -1.235065,1.657929 -3.220528,2.507234 -5.105205,3.201132 -1.806214,0.589816 -3.780957,0.911383 -5.655179,0.478414 -1.094094,-0.370137 -1.532024,-1.953414 -0.600265,-2.719923 0.900742,-0.516271 1.804409,0.33375 2.729535,0.330832 2.052037,0.175803 4.020913,-0.684832 5.763135,-1.679757 0.869789,-0.529648 0.845702,-1.939982 -0.268056,-2.128124 -2.245434,-1.044856 -4.856841,-1.332729 -6.848429,-2.88878 -1.340136,-1.307698 -1.202579,-3.645727 0.08313,-4.943263 2.10607,-2.490849 5.68112,-3.560173 8.833706,-2.833506 1.146808,0.280628 2.351498,1.223955 2.229404,2.522444 -0.104364,1.05419 -1.120932,1.753923 -2.142949,1.625543 z"
           id="path6367"
           class="UnoptimicedTransforms"
           style="fill:#000000;fill-opacity:1" /></g><path
         id="path6364"
         style="fill:#000000;fill-opacity:1;stroke-width:0.360536"
         d="m 53.412439,62.992365 a 0.87000954,0.8539021 0 0 1 -0.864576,0.853886 0.87000954,0.8539021 0 0 1 -0.875375,-0.843219 0.87000954,0.8539021 0 0 1 0.85364,-0.864419 0.87000954,0.8539021 0 0 1 0.88604,0.832421" /><path
         style="fill:#000000;fill-opacity:1;stroke-width:0.108552;stroke-dasharray:none"
         d="m 56.739394,65.040091 c 1.038495,-5.173412 9.612614,-3.566628 11.027238,0.604605 1.590554,5.896936 -4.947331,8.04101 -9.542135,8.422042 -3.003694,0.257268 -3.692823,4.692759 -5.710519,4.822904 -1.831424,-3.427162 2.027575,-8.338548 6.03856,-7.619674 3.639148,1.158771 9.934732,-3.388508 5.123493,-6.169581 -2.232459,-0.764102 -4.653281,-0.301931 -6.936637,-0.0603 z"
         id="path11346" /></g></g></svg>
